<svg id="Layer_1" enable-background="new 0 0 512 512" height="512" viewBox="0 0 512 512" width="512"
    xmlns="http://www.w3.org/2000/svg">
    <g>
        <g>
            <g>
                <g>
                    <g>
                        <path d="m310.452 504.5h39.823c11.893 0 21.534-9.641 21.534-21.534 0-11.893-9.641-21.534-21.534-21.534h-39.823c-11.893 0-21.534 9.641-21.534 21.534 0 11.893 9.641 21.534 21.534 21.534z" fill="#002F6C"/>
                    </g>
                </g>
                <g>
                    <path d="m483.059 374.937h-33.318v-140.292c0-106.864-86.879-193.804-193.667-193.804s-193.668 86.941-193.668 193.804v140.292h-33.317v-140.292c0-125.248 101.825-227.145 226.985-227.145s226.986 101.897 226.986 227.145v140.292z" fill="#d9ddff"/>
                    <g>
                        <g>
                            <g>
                                <g>
                                    <path d="m83.772 230.927h-33.869c-23.419 0-42.403 18.985-42.403 42.403v72.473c0 23.419 18.985 42.403 42.403 42.403h33.869z" fill="#002F6C"/>
                                </g>
                            </g>
                            <path d="m83.772 208.785c11.508 0 20.836 9.329 20.836 20.836v157.316c0 11.508-9.329 20.836-20.836 20.836-11.508 0-20.836-9.329-20.836-20.836v-157.315c-.001-11.508 9.328-20.837 20.836-20.837z" fill="#e8f3ff"/>
                        </g>
                        <g>
                            <g>
                                <g>
                                    <path d="m428.228 385.632h33.869c23.419 0 42.403-18.985 42.403-42.403v-72.473c0-23.419-18.985-42.403-42.403-42.403h-33.869z" fill="#002F6C"/>
                                </g>
                            </g>
                            <path d="m428.228 407.773c-11.508 0-20.836-9.329-20.836-20.836v-157.315c0-11.508 9.329-20.836 20.836-20.836 11.508 0 20.836 9.329 20.836 20.836v157.316c.001 11.507-9.328 20.835-20.836 20.835z" fill="#e8f3ff"/>
                        </g>
                    </g>
                </g>
            </g>
            <g>
                <g>
                    <path d="m256 205.244c58.057 0 105.121 47.056 105.121 105.102 0 30.606-13.089 58.153-33.971 77.362v27.712l-25.066-10.589c-13.916 6.798-29.553 10.618-46.085 10.618-58.057 0-105.121-47.056-105.121-105.102.001-58.047 47.065-105.103 105.122-105.103z" fill="#0DFF5D"/>
                </g>
                <path d="m256 205.245c-6.839 0-13.525.653-20 1.9 48.492 9.339 85.121 51.993 85.121 103.202 0 50.152-37.6 93.58-85.41 103.146 6.565 1.284 13.348 1.956 20.289 1.956 16.531 0 32.169-3.82 46.085-10.618l25.066 10.589v-27.712c20.882-19.208 33.971-46.755 33.971-77.362-.001-58.046-47.065-105.101-105.122-105.101z" fill="#0DDD5D"/>
            </g>
            <g>
                <g>
                    <path d="m363.544 7.5c-49.395 0-89.437 40.035-89.437 89.421 0 26.04 11.136 49.477 28.902 65.819v23.577l21.326-9.009c11.84 5.784 25.144 9.034 39.209 9.034 49.395 0 89.437-40.035 89.437-89.421.001-49.386-40.042-89.421-89.437-89.421z" fill="#FE5000"/>
                </g>
                <g>
                    <path d="m363.544 7.5c-6.875 0-13.57.776-20 2.245 39.766 9.082 69.437 44.665 69.437 87.176 0 42.51-29.669 78.091-69.432 87.175 6.429 1.469 13.121 2.246 19.995 2.246 49.395 0 89.437-40.035 89.437-89.421.001-49.386-40.042-89.421-89.437-89.421z" fill="#E64D00"/>
                </g>
            </g>
        </g>
        <g>
            <path d="m490.509 229.75c-.824-39.916-11.863-79.036-31.984-113.401 1.283-6.278 1.957-12.776 1.957-19.428-.001-53.442-43.486-96.921-96.938-96.921-15.345 0-29.868 3.584-42.777 9.957 0 0-37.207-9.948-62.615-9.948-26.636 0-52.819 3.989-77.822 12.551-23.978 8.21-46.391 20.237-66.619 35.745-7.822 5.997 1.629 17.651 9.127 11.904 18.936-14.519 39.914-25.775 62.351-33.458 23.393-8.01 47.891-11.955 72.832-11.743 15.593.136 31.089 1.922 46.192 5.314-5.892 4.573-11.244 9.809-15.944 15.595-10.586-1.71-21.407-2.577-32.195-2.577-107.163 0-195.022 84.284-200.858 190.086-6.151-.299-12.49.129-18.437 1.751 2.071-49.716 21.024-97.898 52.746-133.438 6.458-7.234-4.733-17.222-11.19-9.988-35.645 39.934-56.25 94.664-56.737 150.499-13.039 9.013-21.598 24.066-21.598 41.08v72.473c0 32.031 27.274 50.647 56.824 49.903 3.701 11.346 14.382 19.567 26.948 19.567 15.625 0 28.336-12.711 28.336-28.336v-157.315c0-15.625-12.711-28.336-28.336-28.336-4.009 0-7.825.837-11.285 2.345 14.8-88.018 91.49-155.289 183.587-155.289 7.626 0 15.269.468 22.817 1.393-7.822 13.972-12.283 30.068-12.283 47.187 0 25.909 10.495 50.878 28.902 69.032v20.365c1.001 6.031 4.474 8.334 10.419 6.909l18.256-7.713c12.406 5.528 25.629 8.329 39.36 8.329 25.591 0 48.898-9.967 66.242-26.222 4.526 11.694 7.832 23.754 9.896 36.084-3.504-1.555-7.38-2.419-11.454-2.419-15.625 0-28.336 12.712-28.336 28.336v157.316c0 15.624 12.711 28.336 28.336 28.336 4.967 0 9.639-1.285 13.702-3.539-.038 6.627-.159 13.252-.419 19.812-1.786 21.488-18.354 39.53-39.484 43.014-6.714.66-14.371.916-23.735.782-3.357-12.323-14.646-21.409-28.018-21.409h-39.823c-16.009 0-29.034 13.024-29.034 29.034s13.024 29.031 29.034 29.031h39.823c13.461 0 24.811-9.208 28.084-21.656 8.463.114 17.423.411 25.826-.938 28.025-4.484 50.411-28.375 52.685-56.808.008-.1-.004-.199 0-.298.522-13.051.128-26.232 0-39.168 28.989 1.405 55.13-19.722 55.13-49.903v-72.473c0-16.969-8.513-31.986-21.491-41.006zm-475.509 116.053v-72.473c0-21.864 19.243-36.09 39.907-34.903v142.279c-20.675 1.146-39.907-12.971-39.907-34.903zm68.772-129.518c7.354 0 13.336 5.983 13.336 13.336v157.316c0 7.353-5.982 13.336-13.336 13.336s-13.336-5.982-13.336-13.336v-157.315c0-7.354 5.982-13.337 13.336-13.337zm266.503 280.715h-39.823c-7.738 0-14.034-6.295-14.034-14.034s6.295-14.034 14.034-14.034h39.823c7.738 0 14.034 6.295 14.034 14.034s-6.296 14.034-14.034 14.034zm124.956-274.394c-5.953-1.626-12.299-2.053-18.456-1.754-1.537-22.706-6.857-44.738-15.849-65.616 4.451-5.89 8.246-12.301 11.275-19.125 13.515 26.872 21.379 56.358 23.03 86.495zm-111.687-43.764c-12.595 0-24.679-2.784-35.917-8.273-2.058-.955-4.128-1.011-6.211-.17l-10.907 4.608v-12.267c0-2.098-.878-4.1-2.422-5.52-16.829-15.479-26.48-37.458-26.48-60.299 0-45.171 36.757-81.921 81.937-81.921s81.937 36.75 81.937 81.921-36.756 81.921-81.937 81.921zm133.456 164.387c0 22.101-19.513 36.16-40.304 34.903-.094-8.06-.147-16.12-.132-24.18 0-9.697-15-9.697-15 0v32.985c0 7.353-5.983 13.336-13.336 13.336s-13.336-5.982-13.336-13.336v-157.315c0-7.354 5.983-13.336 13.336-13.336s13.336 5.983 13.336 13.336v84.404c0 9.697 15 9.697 15 0v-78.173c20.842-1.18 40.436 12.611 40.436 34.903z"/>
            <path d="m324.231 422.329c5.945 1.425 9.418-.877 10.419-6.909v-24.488c21.629-21.122 33.971-50.301 33.971-80.585 0-62.089-50.521-112.602-112.621-112.602s-112.621 50.513-112.621 112.602 50.521 112.602 112.621 112.602c16.144 0 31.685-3.332 46.246-9.908zm-25.439-24.237c-13.39 6.541-27.787 9.857-42.792 9.857-53.829 0-97.621-43.784-97.621-97.602s43.792-97.602 97.621-97.602 97.621 43.784 97.621 97.602c0 27.214-11.499 53.399-31.548 71.841-1.544 1.42-2.422 3.422-2.422 5.52v16.402l-14.647-6.188c-1.998-.845-4.263-.783-6.212.17z"/>
            <path d="m235.939 275.78h40.121c9.697 0 9.697-15 0-15h-40.121c-9.697 0-9.697 15 0 15z" fill="#ffffff" />
            <path d="m276.061 344.914h-40.121c-9.697 0-9.697 15 0 15h40.121c9.697 0 9.697-15 0-15z" fill="#ffffff" />
            <path d="m297.525 302.847h-83.05c-9.697 0-9.697 15 0 15h83.05c9.697 0 9.697-15 0-15z" fill="#ffffff" />
            <path d="m364.202 39.685c-17.716-.339-32.693 14.31-32.693 32.029 0 9.697 15 9.697 15 0 0-9.233 8.128-17.234 17.391-17.032 8.88.179 16.197 7.258 16.657 16.116.5 9.63-7.356 17.952-17.012 17.952-4.142 0-7.5 3.358-7.5 7.5v25.656c0 4.142 3.358 7.5 7.5 7.5s7.5-3.358 7.5-7.5v-19.056c14.815-3.593 25.282-17.596 24.491-32.83-.866-16.674-14.629-29.999-31.334-30.335z" fill="#ffffff" />
            <path d="m363.544 140.154c-9.652 0-9.668 15 0 15 9.652 0 9.668-15 0-15z" fill="#ffffff" />
        </g>
    </g>
</svg>