<svg version="1.1"
      xmlns="http://www.w3.org/2000/svg"
      xmlns:xlink="http://www.w3.org/1999/xlink"  id="snapshot-48723" width="400" height="400" viewBox="0 0 400 400"><desc>This image was made on Patterninja.com</desc><defs>
<!-- image 55923 -->
<g id="transformed-55923" data-image="55923" transform="translate(-32, 174.28) rotate(0, 32, 32)"><g><svg version="1.1" width="64px" height="64px" viewBox="0 0 64 64"><g id="original-55923"><svg xmlns="http://www.w3.org/2000/svg" viewBox="0 0 310.79 310.79" xmlns:xlink="http://www.w3.org/1999/xlink" version="1.1" preserveAspectRatio="xMidYMid meet">
  <path d="M183.412 223.48l12.134 16.106 6.149-53.84a14.098 14.098 0 0 0-11.547-15.48 488.61 488.61 0 0 1-16.013 45.612 25.497 25.497 0 0 1 9.277 7.602z" fill="rgba(255, 255, 255, 0.1)" stroke="none"/>
  <path d="M133.909 104.509l21.709-19.33 2.611-22.76a24.28 24.28 0 0 0-8.281-3.495c-13.142-2.852-26.108 5.489-28.96 18.631-2.412 11.116 3.185 22.104 12.921 26.954z" fill="rgba(255, 255, 255, 0.1)" stroke="none"/>
  <path d="M218.215 94.137c-4.104-1.943-8.76-1.294-12.141 1.275-2.236 17.139-5.83 37.156-11.546 59.101a11.712 11.712 0 0 0 11.266-6.691l18.012-38.038c2.777-5.865.274-12.87-5.591-15.647z" fill="rgba(255, 255, 255, 0.1)" stroke="none"/>
  <path d="M179.581 28.899c1.963-.26 3.645-.306 5.68-.073 5.108.586 9.721 2.851 13.272 6.241-.184-16.544-1.44-26.241-1.53-26.919a9.392 9.392 0 0 0-9.3-8.148c-5.714 0-10.074 5.023-9.333 10.636.017.133.855 6.709 1.211 18.263z" fill="rgba(255, 255, 255, 0.1)" stroke="none"/>
  <path d="M143.369 257.427l-17.197-8.216c-8.281 26.063 2.638 54.314 3.16 55.633a9.398 9.398 0 0 0 12.196 5.285c4.847-1.917 7.187-7.383 5.285-12.197-2.464-6.236-7.34-24.916-3.444-40.505z" fill="rgba(255, 255, 255, 0.1)" stroke="none"/>
  <path d="M191.364 116.563c-1.663 1.282-3.907 2.663-6.032 3.187l-14.41 3.553a457.074 457.074 0 0 1-23.978 79.583l16.994 8.119a476.61 476.61 0 0 0 27.426-94.442z" fill="rgba(255, 255, 255, 0.1)" stroke="none"/>
  <path d="M174.403 230.267a14.103 14.103 0 0 0-5.182-4.238l-63.206-30.198 30.78 2.327c1.624-4.903 13.254-31.744 21.97-71.858l-20.072 4.948 43.94-22.448a11.747 11.747 0 0 0 6.327-9.124l5.348-46.633c.74-6.448-3.897-12.273-10.333-13.011h-.009c-6.423-.733-12.274 3.907-13.001 10.334l-4.631 40.375-39.791 20.329-.094.048-2.833-.615c-8.878-1.927-17.636 3.708-19.563 12.586l-18.019 83.028.032-.016c-1.078 6.084 1.948 12.381 7.794 15.174l60.098 28.712 29.884 39.668c4.694 6.229 13.535 7.455 19.744 2.777 6.219-4.686 7.462-13.524 2.777-19.744l-31.96-42.421z" fill="rgba(255, 255, 255, 0.1)" stroke="none"/>
</svg>
</g></svg></g></g>
<!-- /image 55923 -->

<!-- image 40645 -->
<g id="transformed-40645" data-image="40645" transform="translate(180, 174) rotate(0, 24, 24)"><g><svg version="1.1" width="48px" height="48px" viewBox="0 0 48 48"><g id="original-40645"><svg xmlns="http://www.w3.org/2000/svg" viewBox="0 0 512.001 512.001" xmlns:xlink="http://www.w3.org/1999/xlink" version="1.1" preserveAspectRatio="xMidYMid meet">
  <path d="M416.587 293.049L218.945 95.407c-6.824-6.813-17.891-6.813-24.714 0-6.802 6.813-6.802 17.896.012 24.716l197.641 197.641c6.813 6.807 17.88 6.813 24.715 0 6.802-6.813 6.802-17.896-.012-24.715z" fill="rgba(255, 255, 255, 0.1)" stroke="none"/>
  <path d="M317.76 391.876L120.119 194.234c-6.825-6.807-17.892-6.831-24.715 0-6.802 6.813-6.802 17.896.012 24.716l197.641 197.647v-.012c6.79 6.813 17.902 6.835 24.715 0 6.802-6.801 6.802-17.89-.012-24.709z" fill="rgba(255, 255, 255, 0.1)" stroke="none"/>
  <path d="M181.877 354.824l-47.29 47.294c-6.825 6.825-17.879 6.825-24.704 0-6.824-6.818-6.824-17.88 0-24.704l47.289-47.294-24.706-24.706-47.287 47.292c-20.432 20.432-20.459 53.669 0 74.117 20.427 20.427 53.696 20.427 74.123 0l47.287-47.287-24.712-24.712z" fill="rgba(255, 255, 255, 0.1)" stroke="none"/>
  <path d="M231.29 404.239l-47.287 47.287c-34.057 34.057-89.469 34.062-123.53 0-34.104-34.081-34.104-89.42 0-123.525l47.287-47.292-24.71-24.71-47.291 47.292c-47.679 47.684-47.679 125.271 0 172.949s125.271 47.679 172.949 0L256 428.948l-24.71-24.709z" fill="rgba(255, 255, 255, 0.1)" stroke="none"/>
  <path d="M367.18 342.469L169.527 144.821c-6.812-6.824-17.859-6.846-24.704 0-6.854 6.866-6.798 17.9 0 24.71l197.653 197.647.012.006c6.575 6.597 18.095 6.591 24.692-.006 3.298-3.304 5.119-7.689 5.119-12.351a17.381 17.381 0 0 0-5.119-12.358z" fill="rgba(255, 255, 255, 0.1)" stroke="none"/>
  <path d="M426.822 85.171c-20.427-20.439-53.696-20.415-74.123 0l-47.289 47.293 24.712 24.712 47.292-47.296c6.824-6.824 17.88-6.824 24.704 0 6.824 6.818 6.824 17.88 0 24.704l-47.289 47.296 24.706 24.706 47.288-47.291c20.438-20.44 20.438-53.685-.001-74.124z" fill="rgba(255, 255, 255, 0.1)" stroke="none"/>
  <path d="M476.242 35.758c-47.69-47.674-125.281-47.674-172.949 0L256 83.054l24.706 24.706 47.29-47.294c34.042-34.064 89.465-34.076 123.53 0 34.064 34.058 34.064 89.471 0 123.53l-47.288 47.292 24.711 24.71 47.293-47.29c47.679-47.685 47.679-125.267 0-172.95z" fill="rgba(255, 255, 255, 0.1)" stroke="none"/>
</svg>
</g></svg></g></g>
<!-- /image 40645 -->

<!-- image 15053 -->
<g id="transformed-15053" data-image="15053" transform="translate(178, 367.28) rotate(0, 32, 32)"><g><svg version="1.1" width="64px" height="64px" viewBox="0 0 64 64"><g id="original-15053"><svg xmlns="http://www.w3.org/2000/svg" viewBox="0 0 310.79 310.79" xmlns:xlink="http://www.w3.org/1999/xlink" version="1.1" preserveAspectRatio="xMidYMid meet">
  <path d="M183.412 223.48l12.134 16.106 6.149-53.84a14.098 14.098 0 0 0-11.547-15.48 488.61 488.61 0 0 1-16.013 45.612 25.497 25.497 0 0 1 9.277 7.602z" fill="rgba(255, 255, 255, 0.1)" stroke="none"/>
  <path d="M133.909 104.509l21.709-19.33 2.611-22.76a24.28 24.28 0 0 0-8.281-3.495c-13.142-2.852-26.108 5.489-28.96 18.631-2.412 11.116 3.185 22.104 12.921 26.954z" fill="rgba(255, 255, 255, 0.1)" stroke="none"/>
  <path d="M218.215 94.137c-4.104-1.943-8.76-1.294-12.141 1.275-2.236 17.139-5.83 37.156-11.546 59.101a11.712 11.712 0 0 0 11.266-6.691l18.012-38.038c2.777-5.865.274-12.87-5.591-15.647z" fill="rgba(255, 255, 255, 0.1)" stroke="none"/>
  <path d="M179.581 28.899c1.963-.26 3.645-.306 5.68-.073 5.108.586 9.721 2.851 13.272 6.241-.184-16.544-1.44-26.241-1.53-26.919a9.392 9.392 0 0 0-9.3-8.148c-5.714 0-10.074 5.023-9.333 10.636.017.133.855 6.709 1.211 18.263z" fill="rgba(255, 255, 255, 0.1)" stroke="none"/>
  <path d="M143.369 257.427l-17.197-8.216c-8.281 26.063 2.638 54.314 3.16 55.633a9.398 9.398 0 0 0 12.196 5.285c4.847-1.917 7.187-7.383 5.285-12.197-2.464-6.236-7.34-24.916-3.444-40.505z" fill="rgba(255, 255, 255, 0.1)" stroke="none"/>
  <path d="M191.364 116.563c-1.663 1.282-3.907 2.663-6.032 3.187l-14.41 3.553a457.074 457.074 0 0 1-23.978 79.583l16.994 8.119a476.61 476.61 0 0 0 27.426-94.442z" fill="rgba(255, 255, 255, 0.1)" stroke="none"/>
  <path d="M174.403 230.267a14.103 14.103 0 0 0-5.182-4.238l-63.206-30.198 30.78 2.327c1.624-4.903 13.254-31.744 21.97-71.858l-20.072 4.948 43.94-22.448a11.747 11.747 0 0 0 6.327-9.124l5.348-46.633c.74-6.448-3.897-12.273-10.333-13.011h-.009c-6.423-.733-12.274 3.907-13.001 10.334l-4.631 40.375-39.791 20.329-.094.048-2.833-.615c-8.878-1.927-17.636 3.708-19.563 12.586l-18.019 83.028.032-.016c-1.078 6.084 1.948 12.381 7.794 15.174l60.098 28.712 29.884 39.668c4.694 6.229 13.535 7.455 19.744 2.777 6.219-4.686 7.462-13.524 2.777-19.744l-31.96-42.421z" fill="rgba(255, 255, 255, 0.1)" stroke="none"/>
</svg>
</g></svg></g></g>
<!-- /image 15053 -->

<!-- image 34466 -->
<g id="transformed-34466" data-image="34466" transform="translate(375, -24) rotate(0, 24, 24)"><g><svg version="1.1" width="48px" height="48px" viewBox="0 0 48 48"><g id="original-34466"><svg xmlns="http://www.w3.org/2000/svg" viewBox="0 0 512.001 512.001" xmlns:xlink="http://www.w3.org/1999/xlink" version="1.1" preserveAspectRatio="xMidYMid meet">
  <path d="M416.587 293.049L218.945 95.407c-6.824-6.813-17.891-6.813-24.714 0-6.802 6.813-6.802 17.896.012 24.716l197.641 197.641c6.813 6.807 17.88 6.813 24.715 0 6.802-6.813 6.802-17.896-.012-24.715z" fill="rgba(255, 255, 255, 0.1)" stroke="none"/>
  <path d="M317.76 391.876L120.119 194.234c-6.825-6.807-17.892-6.831-24.715 0-6.802 6.813-6.802 17.896.012 24.716l197.641 197.647v-.012c6.79 6.813 17.902 6.835 24.715 0 6.802-6.801 6.802-17.89-.012-24.709z" fill="rgba(255, 255, 255, 0.1)" stroke="none"/>
  <path d="M181.877 354.824l-47.29 47.294c-6.825 6.825-17.879 6.825-24.704 0-6.824-6.818-6.824-17.88 0-24.704l47.289-47.294-24.706-24.706-47.287 47.292c-20.432 20.432-20.459 53.669 0 74.117 20.427 20.427 53.696 20.427 74.123 0l47.287-47.287-24.712-24.712z" fill="rgba(255, 255, 255, 0.1)" stroke="none"/>
  <path d="M231.29 404.239l-47.287 47.287c-34.057 34.057-89.469 34.062-123.53 0-34.104-34.081-34.104-89.42 0-123.525l47.287-47.292-24.71-24.71-47.291 47.292c-47.679 47.684-47.679 125.271 0 172.949s125.271 47.679 172.949 0L256 428.948l-24.71-24.709z" fill="rgba(255, 255, 255, 0.1)" stroke="none"/>
  <path d="M367.18 342.469L169.527 144.821c-6.812-6.824-17.859-6.846-24.704 0-6.854 6.866-6.798 17.9 0 24.71l197.653 197.647.012.006c6.575 6.597 18.095 6.591 24.692-.006 3.298-3.304 5.119-7.689 5.119-12.351a17.381 17.381 0 0 0-5.119-12.358z" fill="rgba(255, 255, 255, 0.1)" stroke="none"/>
  <path d="M426.822 85.171c-20.427-20.439-53.696-20.415-74.123 0l-47.289 47.293 24.712 24.712 47.292-47.296c6.824-6.824 17.88-6.824 24.704 0 6.824 6.818 6.824 17.88 0 24.704l-47.289 47.296 24.706 24.706 47.288-47.291c20.438-20.44 20.438-53.685-.001-74.124z" fill="rgba(255, 255, 255, 0.1)" stroke="none"/>
  <path d="M476.242 35.758c-47.69-47.674-125.281-47.674-172.949 0L256 83.054l24.706 24.706 47.29-47.294c34.042-34.064 89.465-34.076 123.53 0 34.064 34.058 34.064 89.471 0 123.53l-47.288 47.292 24.711 24.71 47.293-47.29c47.679-47.685 47.679-125.267 0-172.95z" fill="rgba(255, 255, 255, 0.1)" stroke="none"/>
</svg>
</g></svg></g></g>
<!-- /image 34466 -->
</defs><rect x="0" y="0" width="400" height="400" fill="rgba(18, 93, 152, 0)"></rect><use xlink:href="#transformed-55923" transform="translate(-400, -400)"></use><use xlink:href="#transformed-55923" transform="translate(0, -400)"></use><use xlink:href="#transformed-55923" transform="translate(400, -400)"></use><use xlink:href="#transformed-55923" transform="translate(-400, 0)"></use><use xlink:href="#transformed-55923" transform="translate(0, 0)"></use><use xlink:href="#transformed-55923" transform="translate(400, 0)"></use><use xlink:href="#transformed-55923" transform="translate(-400, 400)"></use><use xlink:href="#transformed-55923" transform="translate(0, 400)"></use><use xlink:href="#transformed-55923" transform="translate(400, 400)"></use><use xlink:href="#transformed-40645" transform="translate(-400, -400)"></use><use xlink:href="#transformed-40645" transform="translate(0, -400)"></use><use xlink:href="#transformed-40645" transform="translate(400, -400)"></use><use xlink:href="#transformed-40645" transform="translate(-400, 0)"></use><use xlink:href="#transformed-40645" transform="translate(0, 0)"></use><use xlink:href="#transformed-40645" transform="translate(400, 0)"></use><use xlink:href="#transformed-40645" transform="translate(-400, 400)"></use><use xlink:href="#transformed-40645" transform="translate(0, 400)"></use><use xlink:href="#transformed-40645" transform="translate(400, 400)"></use><use xlink:href="#transformed-15053" transform="translate(-400, -400)"></use><use xlink:href="#transformed-15053" transform="translate(0, -400)"></use><use xlink:href="#transformed-15053" transform="translate(400, -400)"></use><use xlink:href="#transformed-15053" transform="translate(-400, 0)"></use><use xlink:href="#transformed-15053" transform="translate(0, 0)"></use><use xlink:href="#transformed-15053" transform="translate(400, 0)"></use><use xlink:href="#transformed-15053" transform="translate(-400, 400)"></use><use xlink:href="#transformed-15053" transform="translate(0, 400)"></use><use xlink:href="#transformed-15053" transform="translate(400, 400)"></use><use xlink:href="#transformed-34466" transform="translate(-400, -400)"></use><use xlink:href="#transformed-34466" transform="translate(0, -400)"></use><use xlink:href="#transformed-34466" transform="translate(400, -400)"></use><use xlink:href="#transformed-34466" transform="translate(-400, 0)"></use><use xlink:href="#transformed-34466" transform="translate(0, 0)"></use><use xlink:href="#transformed-34466" transform="translate(400, 0)"></use><use xlink:href="#transformed-34466" transform="translate(-400, 400)"></use><use xlink:href="#transformed-34466" transform="translate(0, 400)"></use><use xlink:href="#transformed-34466" transform="translate(400, 400)"></use></svg>